<svg width="46" height="60" viewBox="0 0 46 60" fill="none" xmlns="http://www.w3.org/2000/svg">
<rect x="0.905605" y="0.905605" width="43.469" height="43.469" rx="21.7345" stroke="#590202" stroke-width="1.81121"/>
<path d="M37.7737 16.2674C37.7737 13.3233 35.2371 10.243 35.2371 11.1669C35.2371 12.0907 35.7063 24.3603 35.7063 24.3603L35.2371 32.3837C35.2371 32.9309 35.6807 33.3745 36.2279 33.3745C36.7751 33.3745 37.2186 32.9309 37.2186 32.3837L36.9566 24.3142C36.9566 24.3142 37.7737 19.2116 37.7737 16.2674Z" stroke="#590202" stroke-width="0.625894" stroke-miterlimit="10"/>
<mask id="path-3-inside-1_61_2" fill="white">
<path d="M37.7737 16.2674C37.7737 13.3233 35.2371 10.243 35.2371 11.1669C35.2371 12.0907 35.7063 24.3603 35.7063 24.3603L35.2371 32.3837C35.2371 32.9309 35.6807 33.3745 36.2279 33.3745C36.7751 33.3745 37.2186 32.9309 37.2186 32.3837L36.9566 24.3142C36.9566 24.3142 37.7737 19.2116 37.7737 16.2674Z"/>
</mask>
<path d="M35.7063 24.3603L38.8304 24.5429L38.8392 24.3919L38.8335 24.2407L35.7063 24.3603ZM35.2371 32.3837L32.113 32.201L32.1076 32.2923V32.3837H35.2371ZM37.2186 32.3837H40.3481V32.3329L40.3465 32.2822L37.2186 32.3837ZM36.9566 24.3142L33.8665 23.8194L33.8191 24.1158L33.8288 24.4157L36.9566 24.3142ZM40.9031 16.2674C40.9031 13.9968 39.9682 11.9126 39.165 10.6174C38.77 9.98046 38.257 9.28957 37.676 8.78907C37.5188 8.65368 37.2896 8.47351 36.9985 8.31074C36.7572 8.17586 36.1892 7.88875 35.4165 7.87136C34.4369 7.84931 33.3516 8.28349 32.6733 9.28632C32.1449 10.0677 32.1076 10.8483 32.1076 11.1669H38.3666C38.3666 11.37 38.3491 12.0664 37.8578 12.7928C37.2167 13.7407 36.1859 14.1492 35.2757 14.1287C34.5724 14.1129 34.0885 13.8546 33.9439 13.7737C33.7494 13.665 33.6292 13.564 33.5909 13.5311C33.4855 13.4403 33.6066 13.5302 33.8458 13.9159C34.3109 14.6659 34.6442 15.5939 34.6442 16.2674H40.9031ZM32.1076 11.1669C32.1076 11.705 32.2291 15.0991 32.3443 18.2253C32.403 19.818 32.4617 21.3815 32.5057 22.5468C32.5277 23.1295 32.5461 23.6127 32.5589 23.9502C32.5653 24.119 32.5704 24.2513 32.5738 24.3415C32.5755 24.3866 32.5768 24.4212 32.5777 24.4445C32.5782 24.4561 32.5785 24.4649 32.5787 24.4709C32.5789 24.4738 32.5789 24.4761 32.579 24.4776C32.579 24.4783 32.5791 24.4789 32.5791 24.4793C32.5791 24.4795 32.5791 24.4796 32.5791 24.4797C32.5791 24.4798 32.5791 24.4798 35.7063 24.3603C38.8335 24.2407 38.8335 24.2406 38.8335 24.2405C38.8335 24.2404 38.8334 24.2403 38.8334 24.2401C38.8334 24.2398 38.8334 24.2392 38.8334 24.2385C38.8333 24.237 38.8332 24.2348 38.8331 24.2318C38.8329 24.226 38.8326 24.2172 38.8321 24.2056C38.8312 24.1824 38.8299 24.1479 38.8282 24.103C38.8248 24.013 38.8197 23.8808 38.8133 23.7123C38.8005 23.3752 38.7822 22.8926 38.7602 22.3106C38.7162 21.1465 38.6576 19.5849 38.599 17.9948C38.5404 16.4041 38.4819 14.7869 38.438 13.5106C38.4161 12.8721 38.3979 12.322 38.3853 11.9044C38.379 11.6953 38.3741 11.5228 38.3709 11.3908C38.3693 11.3248 38.3681 11.2717 38.3674 11.2308C38.3671 11.2105 38.3668 11.1947 38.3667 11.1829C38.3666 11.1706 38.3666 11.1659 38.3666 11.1669H32.1076ZM32.5821 24.1776L32.113 32.201L38.3612 32.5664L38.8304 24.5429L32.5821 24.1776ZM32.1076 32.3837C32.1076 34.6593 33.9523 36.504 36.2279 36.504V30.245C37.409 30.245 38.3666 31.2026 38.3666 32.3837H32.1076ZM36.2279 36.504C38.5034 36.504 40.3481 34.6593 40.3481 32.3837H34.0892C34.0892 31.2026 35.0467 30.245 36.2279 30.245V36.504ZM40.3465 32.2822L40.0845 24.2126L33.8288 24.4157L34.0908 32.4853L40.3465 32.2822ZM36.9566 24.3142C40.0467 24.809 40.0468 24.8088 40.0468 24.8087C40.0468 24.8086 40.0468 24.8084 40.0469 24.8082C40.0469 24.8079 40.047 24.8075 40.0471 24.807C40.0472 24.806 40.0474 24.8047 40.0477 24.8031C40.0482 24.7999 40.0489 24.7954 40.0498 24.7898C40.0516 24.7785 40.0541 24.7625 40.0574 24.7418C40.0638 24.7006 40.0731 24.641 40.0848 24.5649C40.1083 24.4126 40.1414 24.194 40.1809 23.9232C40.2599 23.3825 40.3652 22.6299 40.4707 21.7808C40.6763 20.1269 40.9031 17.9489 40.9031 16.2674H34.6442C34.6442 17.5301 34.4626 19.3755 34.2596 21.0089C34.1608 21.8035 34.0619 22.5105 33.9877 23.0186C33.9506 23.2722 33.9199 23.4752 33.8986 23.6135C33.888 23.6826 33.8797 23.7356 33.8743 23.7705C33.8715 23.7879 33.8695 23.8009 33.8682 23.8091C33.8675 23.8132 33.867 23.8162 33.8668 23.8179C33.8666 23.8187 33.8665 23.8193 33.8665 23.8195C33.8665 23.8197 33.8665 23.8197 33.8665 23.8197C33.8665 23.8197 33.8665 23.8196 33.8665 23.8196C33.8665 23.8195 33.8665 23.8194 36.9566 24.3142Z" fill="#590202" mask="url(#path-3-inside-1_61_2)"/>
<path d="M10.6763 11.5332C10.6763 11.5332 10.7316 13.593 10.7316 15.5487C10.7316 17.0155 10.2861 17.9366 9.65117 18.3056L9.66529 32.3836C9.66529 32.9308 9.22172 33.3743 8.67451 33.3743C8.12731 33.3743 7.68374 32.9308 7.68374 32.3836L8.0854 18.3085C7.44783 17.9415 7 17.0193 7 15.5487C7 13.593 7.05524 11.5332 7.05524 11.5332" stroke="#590202" stroke-width="0.990777" stroke-miterlimit="10" stroke-linecap="round" stroke-linejoin="round"/>
<path d="M8.86581 11.5332V16.2815" stroke="#590202" stroke-width="0.990777" stroke-miterlimit="10" stroke-linecap="round" stroke-linejoin="round"/>
<path d="M22.8524 32.0257C28.3129 32.0257 32.7395 27.5991 32.7395 22.1386C32.7395 16.6781 28.3129 12.2515 22.8524 12.2515C17.3919 12.2515 12.9653 16.6781 12.9653 22.1386C12.9653 27.5991 17.3919 32.0257 22.8524 32.0257Z" stroke="#590202" stroke-width="1.87768" stroke-miterlimit="10" stroke-linecap="round" stroke-linejoin="round"/>
<path d="M22.8544 28.1781C26.1785 28.1781 28.8732 25.4834 28.8732 22.1593C28.8732 18.8353 26.1785 16.1406 22.8544 16.1406C19.5304 16.1406 16.8357 18.8353 16.8357 22.1593C16.8357 25.4834 19.5304 28.1781 22.8544 28.1781Z" fill="#590202"/>
<path d="M7 16.0073H10.7554L10.1295 18.5109L9.84205 32.3069C9.82787 32.9878 9.27184 33.5324 8.59081 33.5324C7.88941 33.5324 7.32495 32.956 7.33956 32.2548L7.62589 18.5109L7 16.0073Z" fill="#590202"/>
<path d="M18.182 57.7139L20.0675 51.0539H20.927L22.799 57.7139H22.2185L20.4905 51.4364H20.4995L18.7625 57.7139H18.182ZM19.046 55.8644V55.3739H21.9485V55.8644H19.046ZM24.5813 50.6804V57.7139H24.0323V50.6804H24.5813ZM26.7522 50.6804V57.7139H26.2032V50.6804H26.7522Z" fill="black"/>
</svg>
