<svg width="46" height="60" viewBox="0 0 46 60" fill="none" xmlns="http://www.w3.org/2000/svg">
<rect x="0.905605" y="0.905605" width="43.469" height="43.469" rx="21.7345" stroke="#590202" stroke-width="1.81121"/>
<path d="M15.2223 51.0764C15.6153 51.0764 15.9528 51.1304 16.2348 51.2384C16.5198 51.3434 16.7388 51.5129 16.8918 51.7469C17.0448 51.9779 17.1213 52.2779 17.1213 52.6469C17.1213 52.9919 17.0493 53.2799 16.9053 53.5109C16.7643 53.7419 16.5813 53.9159 16.3563 54.0329C16.1343 54.1499 15.9003 54.2129 15.6543 54.2219C15.9243 54.2279 16.1808 54.2879 16.4238 54.4019C16.6698 54.5129 16.8708 54.6899 17.0268 54.9329C17.1828 55.1729 17.2608 55.4924 17.2608 55.8914C17.2608 56.2874 17.1813 56.6219 17.0223 56.8949C16.8633 57.1649 16.6293 57.3689 16.3203 57.5069C16.0143 57.6449 15.6333 57.7139 15.1773 57.7139H13.1568V51.0764H15.2223ZM13.7013 54.1904L13.5078 53.9969H14.8848C15.4068 53.9969 15.8163 53.8934 16.1133 53.6864C16.4103 53.4764 16.5588 53.1554 16.5588 52.7234C16.5588 52.4324 16.4973 52.2029 16.3743 52.0349C16.2513 51.8669 16.0788 51.7469 15.8568 51.6749C15.6378 51.6029 15.3843 51.5669 15.0963 51.5669H13.4493L13.7013 51.2564V54.1904ZM15.0738 57.2234C15.5658 57.2234 15.9573 57.1139 16.2483 56.8949C16.5423 56.6759 16.6893 56.3324 16.6893 55.8644C16.6893 55.5854 16.6398 55.3574 16.5408 55.1804C16.4448 55.0004 16.3128 54.8609 16.1448 54.7619C15.9768 54.6599 15.7863 54.5894 15.5733 54.5504C15.3603 54.5084 15.1398 54.4874 14.9118 54.4874H13.5078L13.7013 54.2984V57.5339L13.4493 57.2234H15.0738ZM18.7423 55.5584V55.0589H22.6123L22.5043 55.2119C22.5043 55.1939 22.5043 55.1789 22.5043 55.1669C22.5043 55.1519 22.5043 55.1369 22.5043 55.1219C22.5043 54.8129 22.4383 54.5249 22.3063 54.2579C22.1743 53.9909 21.9823 53.7764 21.7303 53.6144C21.4813 53.4524 21.1768 53.3714 20.8168 53.3714C20.4508 53.3714 20.1283 53.4554 19.8493 53.6234C19.5703 53.7884 19.3528 54.0179 19.1968 54.3119C19.0408 54.6029 18.9628 54.9419 18.9628 55.3289C18.9628 55.7189 19.0393 56.0624 19.1923 56.3594C19.3483 56.6534 19.5658 56.8829 19.8448 57.0479C20.1238 57.2099 20.4493 57.2909 20.8213 57.2909C21.0943 57.2909 21.3313 57.2579 21.5323 57.1919C21.7363 57.1229 21.9043 57.0329 22.0363 56.9219C22.1713 56.8109 22.2733 56.6939 22.3423 56.5709C22.4143 56.4449 22.4563 56.3264 22.4683 56.2154H23.0218C23.0098 56.3924 22.9528 56.5739 22.8508 56.7599C22.7518 56.9429 22.6093 57.1139 22.4233 57.2729C22.2403 57.4319 22.0123 57.5609 21.7393 57.6599C21.4693 57.7559 21.1573 57.8039 20.8033 57.8039C20.3413 57.8039 19.9303 57.6989 19.5703 57.4889C19.2133 57.2789 18.9313 56.9894 18.7243 56.6204C18.5203 56.2484 18.4183 55.8209 18.4183 55.3379C18.4183 54.8519 18.5218 54.4244 18.7288 54.0554C18.9358 53.6834 19.2193 53.3924 19.5793 53.1824C19.9393 52.9724 20.3488 52.8674 20.8078 52.8674C21.2758 52.8674 21.6808 52.9739 22.0228 53.1869C22.3648 53.3999 22.6288 53.6894 22.8148 54.0554C23.0008 54.4184 23.0938 54.8264 23.0938 55.2794C23.0938 55.3184 23.0923 55.3679 23.0893 55.4279C23.0893 55.4879 23.0878 55.5314 23.0848 55.5584H18.7423ZM24.5167 55.5584V55.0589H28.3867L28.2787 55.2119C28.2787 55.1939 28.2787 55.1789 28.2787 55.1669C28.2787 55.1519 28.2787 55.1369 28.2787 55.1219C28.2787 54.8129 28.2127 54.5249 28.0807 54.2579C27.9487 53.9909 27.7567 53.7764 27.5047 53.6144C27.2557 53.4524 26.9512 53.3714 26.5912 53.3714C26.2252 53.3714 25.9027 53.4554 25.6237 53.6234C25.3447 53.7884 25.1272 54.0179 24.9712 54.3119C24.8152 54.6029 24.7372 54.9419 24.7372 55.3289C24.7372 55.7189 24.8137 56.0624 24.9667 56.3594C25.1227 56.6534 25.3402 56.8829 25.6192 57.0479C25.8982 57.2099 26.2237 57.2909 26.5957 57.2909C26.8687 57.2909 27.1057 57.2579 27.3067 57.1919C27.5107 57.1229 27.6787 57.0329 27.8107 56.9219C27.9457 56.8109 28.0477 56.6939 28.1167 56.5709C28.1887 56.4449 28.2307 56.3264 28.2427 56.2154H28.7962C28.7842 56.3924 28.7272 56.5739 28.6252 56.7599C28.5262 56.9429 28.3837 57.1139 28.1977 57.2729C28.0147 57.4319 27.7867 57.5609 27.5137 57.6599C27.2437 57.7559 26.9317 57.8039 26.5777 57.8039C26.1157 57.8039 25.7047 57.6989 25.3447 57.4889C24.9877 57.2789 24.7057 56.9894 24.4987 56.6204C24.2947 56.2484 24.1927 55.8209 24.1927 55.3379C24.1927 54.8519 24.2962 54.4244 24.5032 54.0554C24.7102 53.6834 24.9937 53.3924 25.3537 53.1824C25.7137 52.9724 26.1232 52.8674 26.5822 52.8674C27.0502 52.8674 27.4552 52.9739 27.7972 53.1869C28.1392 53.3999 28.4032 53.6894 28.5892 54.0554C28.7752 54.4184 28.8682 54.8264 28.8682 55.2794C28.8682 55.3184 28.8667 55.3679 28.8637 55.4279C28.8637 55.4879 28.8622 55.5314 28.8592 55.5584H24.5167ZM30.6393 57.7139V53.4254H29.5773V52.9349H30.6393V52.2734C30.6393 52.0934 30.6573 51.9209 30.6933 51.7559C30.7323 51.5909 30.7893 51.4394 30.8643 51.3014C30.9423 51.1604 31.0398 51.0389 31.1568 50.9369C31.2768 50.8349 31.4193 50.7554 31.5843 50.6984C31.7493 50.6414 31.9368 50.6129 32.1468 50.6129C32.2758 50.6129 32.3823 50.6219 32.4663 50.6399C32.5503 50.6549 32.6073 50.6699 32.6373 50.6849V51.1754C32.5983 51.1634 32.5383 51.1499 32.4573 51.1349C32.3763 51.1199 32.2893 51.1124 32.1963 51.1124C31.9833 51.1124 31.8108 51.1484 31.6788 51.2204C31.5468 51.2924 31.4448 51.3884 31.3728 51.5084C31.3038 51.6284 31.2573 51.7634 31.2333 51.9134C31.2093 52.0604 31.1973 52.2104 31.1973 52.3634V52.9349H32.6103V53.4254H31.1973V57.7139H30.6393Z" fill="black"/>
<path d="M17.587 21.7287C17.587 21.7287 16.0942 21.6214 15.7116 21.2388C15.3291 20.8563 15.3291 20.2359 15.7116 19.8533C16.0942 19.4708 16.7146 19.4708 17.0971 19.8533C17.4798 20.2359 17.587 21.7287 17.587 21.7287Z" fill="#590202"/>
<mask id="path-4-outside-1_61_3" maskUnits="userSpaceOnUse" x="9.13388" y="6.96143" width="27" height="16" fill="black">
<rect fill="white" x="9.13388" y="6.96143" width="27" height="16"/>
<path d="M14.3821 19.3655L15.3803 14.8353C15.3803 14.8353 11.618 14.5282 12.1938 11.1882C12.1938 11.1882 17.0695 12.8007 18.4516 11.4185C18.4516 11.4185 21.507 8.15408 26.385 11.3975C28.0126 12.4798 32.6427 11.1672 32.6427 11.1672C33.2186 14.5072 29.4563 14.8143 29.4563 14.8143L30.4544 19.3445"/>
</mask>
<path d="M11.729 18.7809C11.4061 20.2462 12.3322 21.6958 13.7975 22.0187C15.2629 22.3415 16.7124 21.4154 17.0353 19.9501L11.729 18.7809ZM15.3803 14.8353L18.0335 15.4199C18.2023 14.6538 18.0317 13.8521 17.5655 13.2211C17.0994 12.5901 16.3833 12.1914 15.6014 12.1275L15.3803 14.8353ZM12.1938 11.1882L13.0469 8.6088C12.2961 8.3605 11.4744 8.45165 10.7962 8.85845C10.1181 9.26525 9.65088 9.94732 9.51652 10.7266L12.1938 11.1882ZM18.4516 11.4185L20.3727 13.3396C20.3938 13.3184 20.4147 13.2969 20.4351 13.2751L18.4516 11.4185ZM26.385 11.3975L27.8893 9.13519L27.8893 9.13518L26.385 11.3975ZM32.6427 11.1672L35.32 10.7056C35.1892 9.94646 34.7422 9.27857 34.0903 8.86813C33.4384 8.45769 32.6429 8.34329 31.9018 8.55338L32.6427 11.1672ZM29.4563 14.8143L29.2352 12.1065C28.4533 12.1704 27.7372 12.5691 27.271 13.2001C26.8049 13.8311 26.6343 14.6328 26.8031 15.3989L29.4563 14.8143ZM27.8013 19.9291C28.1241 21.3944 29.5737 22.3205 31.039 21.9976C32.5043 21.6748 33.4305 20.2252 33.1076 18.7599L27.8013 19.9291ZM17.0353 19.9501L18.0335 15.4199L12.7271 14.2508L11.729 18.7809L17.0353 19.9501ZM15.3803 14.8353C15.6014 12.1275 15.6025 12.1276 15.6037 12.1277C15.6041 12.1278 15.6052 12.1279 15.6059 12.1279C15.6074 12.128 15.6088 12.1282 15.6102 12.1283C15.613 12.1285 15.6155 12.1287 15.6179 12.1289C15.6226 12.1294 15.6265 12.1297 15.6297 12.13C15.636 12.1306 15.6394 12.131 15.64 12.1311C15.6413 12.1312 15.632 12.1302 15.614 12.1276C15.5769 12.1221 15.5096 12.1108 15.4245 12.0908C15.2379 12.0468 15.0519 11.9811 14.9148 11.903C14.7824 11.8276 14.7982 11.8009 14.8342 11.8668C14.8905 11.9701 14.8181 11.9575 14.8711 11.6498L9.51652 10.7266C9.28164 12.0889 9.46359 13.3673 10.0634 14.4675C10.6428 15.5304 11.4913 16.2066 12.2274 16.6255C12.9589 17.0418 13.6775 17.2616 14.1784 17.3796C14.437 17.4405 14.6591 17.4793 14.8256 17.5037C14.9093 17.516 14.9803 17.5248 15.0363 17.5311C15.0644 17.5342 15.0889 17.5367 15.1094 17.5387C15.1197 17.5397 15.129 17.5405 15.1373 17.5413C15.1415 17.5417 15.1454 17.542 15.149 17.5423C15.1509 17.5425 15.1526 17.5426 15.1543 17.5427C15.1552 17.5428 15.1564 17.5429 15.1568 17.543C15.1581 17.5431 15.1593 17.5432 15.3803 14.8353ZM12.1938 11.1882C11.3408 13.7676 11.3412 13.7678 11.3417 13.7679C11.3419 13.768 11.3424 13.7682 11.3427 13.7683C11.3435 13.7685 11.3443 13.7688 11.3451 13.7691C11.3469 13.7696 11.3489 13.7703 11.3513 13.7711C11.356 13.7726 11.3619 13.7746 11.3689 13.7768C11.3831 13.7814 11.4018 13.7875 11.425 13.7949C11.4713 13.8096 11.5354 13.8297 11.6151 13.8539C11.7742 13.9024 11.9973 13.9679 12.2674 14.041C12.8016 14.1856 13.5475 14.3674 14.3608 14.502C15.1524 14.6331 16.123 14.7393 17.0705 14.6765C17.9165 14.6204 19.3144 14.3979 20.3727 13.3396L16.5305 9.4975C16.8977 9.13026 17.1679 9.22448 16.711 9.25477C16.3556 9.27834 15.8481 9.24064 15.2481 9.14133C14.6696 9.04559 14.1102 8.91066 13.6871 8.79612C13.4785 8.73965 13.3099 8.69002 13.197 8.65566C13.1406 8.63853 13.0986 8.62532 13.0728 8.61712C13.06 8.61302 13.0512 8.61019 13.0468 8.60875C13.0446 8.60804 13.0435 8.60767 13.0435 8.60767C13.0435 8.60767 13.0437 8.60777 13.0443 8.60795C13.0446 8.60805 13.045 8.60816 13.0454 8.6083C13.0456 8.60837 13.046 8.6085 13.0461 8.60853C13.0465 8.60866 13.0469 8.6088 12.1938 11.1882ZM18.4516 11.4185C20.4351 13.2751 20.4339 13.2763 20.4328 13.2775C20.4324 13.2779 20.4313 13.2792 20.4305 13.2799C20.4291 13.2815 20.4276 13.283 20.4262 13.2845C20.4234 13.2875 20.4207 13.2903 20.4182 13.2929C20.4132 13.2982 20.4088 13.3027 20.405 13.3066C20.3975 13.3144 20.3923 13.3195 20.3895 13.3223C20.3839 13.3277 20.3874 13.324 20.3997 13.3131C20.4248 13.2907 20.4823 13.2418 20.5693 13.1805C20.747 13.0555 21.0189 12.8989 21.3673 12.7947C21.9482 12.621 23.0975 12.4742 24.8807 13.6599L27.8893 9.13518C24.7946 7.07745 21.9771 6.94111 19.8108 7.58878C18.7856 7.8953 17.9888 8.35212 17.4411 8.73777C17.1654 8.93186 16.9461 9.11264 16.7851 9.25615C16.7043 9.32812 16.6374 9.39137 16.5847 9.44309C16.5583 9.46898 16.5354 9.49205 16.5159 9.51196C16.5062 9.52192 16.4974 9.5311 16.4894 9.53946C16.4854 9.54363 16.4816 9.5476 16.4781 9.55137C16.4763 9.55325 16.4746 9.55508 16.4729 9.55685C16.4721 9.55774 16.4708 9.55903 16.4704 9.55947C16.4692 9.56075 16.468 9.56202 18.4516 11.4185ZM24.8807 13.6599C25.914 14.3469 27.1168 14.4966 27.9301 14.5323C28.8253 14.5716 29.7393 14.4867 30.5054 14.3781C31.2856 14.2676 31.9955 14.1203 32.5053 14.0025C32.7624 13.9431 32.9741 13.89 33.1249 13.8507C33.2004 13.8311 33.2609 13.8148 33.3046 13.8029C33.3265 13.797 33.3442 13.7921 33.3574 13.7884C33.364 13.7866 33.3696 13.785 33.3739 13.7838C33.3761 13.7832 33.3781 13.7826 33.3797 13.7822C33.3805 13.7819 33.3812 13.7817 33.3819 13.7815C33.3822 13.7814 33.3827 13.7813 33.3829 13.7813C33.3833 13.7811 33.3837 13.781 32.6427 11.1672C31.9018 8.55338 31.9021 8.55328 31.9025 8.55317C31.9026 8.55315 31.9029 8.55305 31.9031 8.55299C31.9035 8.55288 31.9038 8.55279 31.9041 8.55272C31.9046 8.55258 31.9048 8.55252 31.9048 8.55253C31.9047 8.55255 31.9036 8.55287 31.9014 8.55347C31.897 8.55469 31.8885 8.55705 31.8761 8.56044C31.8511 8.56723 31.8106 8.57812 31.7563 8.59225C31.6475 8.62057 31.4848 8.66152 31.2824 8.70827C30.8732 8.80279 30.3238 8.91596 29.743 8.99826C29.1481 9.08256 28.5994 9.12284 28.1687 9.10391C27.6561 9.08138 27.6698 8.98924 27.8893 9.13519L24.8807 13.6599ZM29.9654 11.6288C30.0185 11.9365 29.9461 11.9491 30.0024 11.8458C30.0383 11.7798 30.0542 11.8066 29.9218 11.882C29.7846 11.96 29.5987 12.0258 29.4121 12.0697C29.327 12.0898 29.2597 12.1011 29.2226 12.1065C29.2046 12.1092 29.1953 12.1102 29.1965 12.1101C29.1972 12.11 29.2006 12.1096 29.2069 12.109C29.2101 12.1087 29.214 12.1083 29.2187 12.1079C29.2211 12.1077 29.2236 12.1075 29.2264 12.1073C29.2277 12.1071 29.2292 12.107 29.2306 12.1069C29.2314 12.1068 29.2325 12.1067 29.2329 12.1067C29.234 12.1066 29.2352 12.1065 29.4563 14.8143C29.6773 17.5221 29.6785 17.522 29.6797 17.5219C29.6801 17.5219 29.6814 17.5218 29.6822 17.5217C29.6839 17.5216 29.6857 17.5214 29.6875 17.5213C29.6912 17.521 29.6951 17.5206 29.6993 17.5203C29.7076 17.5195 29.7169 17.5187 29.7272 17.5177C29.7477 17.5157 29.7722 17.5132 29.8002 17.5101C29.8563 17.5038 29.9273 17.495 30.011 17.4827C30.1774 17.4583 30.3996 17.4195 30.6582 17.3586C31.159 17.2406 31.8777 17.0208 32.6091 16.6045C33.3453 16.1856 34.1938 15.5094 34.7732 14.4465C35.373 13.3462 35.5549 12.0679 35.32 10.7056L29.9654 11.6288ZM26.8031 15.3989L27.8013 19.9291L33.1076 18.7599L32.1094 14.2297L26.8031 15.3989Z" fill="#590202" mask="url(#path-4-outside-1_61_3)"/>
<path d="M18.7239 29.0474H26.4275C26.5607 29.0474 26.6883 29.1031 26.7744 29.2048C27.1892 29.6942 28.3146 31.3342 27.8003 34.2485C27.7104 34.7582 27.2298 35.1018 26.7208 35.008C25.0182 34.6942 21.1738 34.1315 18.5113 34.8481C17.9696 34.9939 17.4305 34.6257 17.3635 34.0688C17.2156 32.8386 17.2089 30.8219 18.3483 29.2349C18.434 29.1155 18.5769 29.0474 18.7239 29.0474Z" fill="#590202"/>
<path d="M19.4021 31.1421C19.4021 31.1421 19.0658 32.5406 20.947 32.5754" stroke="white" stroke-width="0.905605" stroke-miterlimit="10" stroke-linecap="round" stroke-linejoin="round"/>
<path d="M19.0399 36.6235C19.0399 36.6235 22.1496 40.501 25.7967 36.7771" stroke="#590202" stroke-width="2.71681" stroke-miterlimit="10" stroke-linecap="round" stroke-linejoin="round"/>
<path d="M13.3528 16.3869C11.8518 15.428 9.7381 14.1398 7.26131 14.7496C7.26131 14.7496 6.53188 21.6216 14.786 22.351L15.3803 22.7826C15.3803 22.7826 14.2582 27.1509 15.9984 30.67" stroke="#590202" stroke-width="2.71681" stroke-miterlimit="10" stroke-linecap="round" stroke-linejoin="round"/>
<path d="M27.2495 21.7062C27.2495 21.7062 28.7423 21.5989 29.1249 21.2164C29.5075 20.8338 29.5075 20.2134 29.1249 19.8309C28.7423 19.4483 28.122 19.4483 27.7394 19.8309C27.3568 20.2134 27.2495 21.7062 27.2495 21.7062Z" fill="#590202"/>
<path d="M25.9243 31.1211C25.9243 31.1211 26.2606 32.5196 24.3794 32.5544" stroke="white" stroke-width="0.905605" stroke-miterlimit="10" stroke-linecap="round" stroke-linejoin="round"/>
<path d="M31.6029 16.2909C33.0957 15.366 35.1633 14.1347 37.5752 14.7284C37.5752 14.7284 38.3046 21.6004 30.0506 22.3299L29.4562 22.7614C29.4562 22.7614 30.6996 26.6691 28.9595 30.1882" stroke="#590202" stroke-width="2.71681" stroke-miterlimit="10" stroke-linecap="round" stroke-linejoin="round"/>
</svg>
