<svg width="33" height="33" viewBox="0 0 33 33" fill="none" xmlns="http://www.w3.org/2000/svg">
<rect x="0.659999" y="0.659999" width="31.68" height="31.68" rx="15.84" stroke="#590202" stroke-width="1.32"/>
<path d="M26.3923 13.5299V22.731C26.3923 23.0591 26.1265 23.3246 25.7987 23.3246H8.58361C8.25578 23.3246 7.98999 23.0591 7.98999 22.731V13.5299C7.98999 13.2023 8.25578 12.9362 8.58361 12.9362L18.674 11.322" fill="#590202"/>
<path d="M26.3923 13.5299V22.731C26.3923 23.0591 26.1265 23.3246 25.7987 23.3246H8.58361C8.25578 23.3246 7.98999 23.0591 7.98999 22.731V13.5299C7.98999 13.2023 8.25578 12.9362 8.58361 12.9362L18.674 11.322" stroke="#590202" stroke-width="1.98" stroke-miterlimit="10" stroke-linecap="round" stroke-linejoin="round"/>
<path d="M23.7265 10.5769C25.2236 10.7283 26.3923 11.993 26.3923 13.5298Z" fill="#590202"/>
<path d="M23.7265 10.5769C25.2236 10.7283 26.3923 11.993 26.3923 13.5298" stroke="#590202" stroke-width="1.98" stroke-miterlimit="10" stroke-linecap="round" stroke-linejoin="round"/>
<path d="M7.99 13.27L8.28681 17.0915C9.10652 17.0915 9.77087 16.4272 9.77087 15.6078C9.77087 14.7881 10.4352 14.1234 11.2549 14.1234C12.0746 14.1234 12.739 14.7881 12.739 15.6078C12.739 16.4272 13.4033 17.0915 14.223 17.0915C15.0427 17.0915 15.7071 16.4272 15.7071 15.6078C15.7071 14.7881 16.3715 14.1234 17.1912 14.1234C18.0109 14.1234 18.6752 14.7881 18.6752 15.6078C18.6752 16.4272 19.3396 17.0915 20.1593 17.0915C20.979 17.0915 21.6433 16.4272 21.6433 15.6078C21.6433 14.7881 22.3077 14.1234 23.1274 14.1234C23.9471 14.1234 24.6114 14.7881 24.6114 15.6078C24.6114 16.4272 25.2758 17.0915 26.0955 17.0915L25.81 10.96" fill="#590202"/>
<path d="M7.98999 19.9934H26.3923Z" fill="#590202"/>
<path d="M7.98999 19.9934H26.3923" stroke="#590202" stroke-width="1.98" stroke-miterlimit="10" stroke-linecap="round" stroke-linejoin="round"/>
<path d="M21.1981 13.036C22.5645 13.036 23.6722 11.9283 23.6722 10.5619C23.6722 9.19555 22.5645 8.08788 21.1981 8.08788C19.8317 8.08788 18.7241 9.19555 18.7241 10.5619C18.7241 11.9283 19.8317 13.036 21.1981 13.036Z" fill="#590202" stroke="#590202" stroke-width="1.98" stroke-miterlimit="10" stroke-linecap="round" stroke-linejoin="round"/>
<path d="M21.1981 9.96811C21.1981 8.32885 22.5268 7 24.1662 7Z" fill="#590202"/>
<path d="M21.1981 9.96811C21.1981 8.32885 22.5268 7 24.1662 7" stroke="#590202" stroke-width="1.32" stroke-miterlimit="10" stroke-linecap="round" stroke-linejoin="round"/>
</svg>
