<svg width="46" height="60" viewBox="0 0 46 60" fill="none" xmlns="http://www.w3.org/2000/svg">
<rect x="0.905589" y="0.905605" width="43.469" height="43.469" rx="21.7345" stroke="#590202" stroke-width="1.81121"/>
<path d="M10.3594 55.4639C10.3594 55.7249 10.3114 55.9919 10.2154 56.2649C10.1194 56.5379 9.97539 56.7914 9.78339 57.0254C9.59139 57.2564 9.34989 57.4439 9.05889 57.5879C8.76789 57.7289 8.42739 57.7994 8.03739 57.7994C7.49739 57.7994 7.03689 57.6554 6.65589 57.3674C6.27489 57.0794 5.98389 56.6789 5.78289 56.1659C5.58489 55.6529 5.48589 55.0634 5.48589 54.3974C5.48589 53.7284 5.58489 53.1389 5.78289 52.6289C5.98389 52.1189 6.27489 51.7214 6.65589 51.4364C7.03689 51.1484 7.49739 51.0044 8.03739 51.0044C8.49039 51.0044 8.87589 51.1004 9.19389 51.2924C9.51489 51.4814 9.76839 51.7229 9.95439 52.0169C10.1434 52.3109 10.2649 52.6124 10.3189 52.9214C10.3459 53.0624 10.3594 53.1974 10.3594 53.3264H9.80139C9.80139 53.2454 9.79389 53.1509 9.77889 53.0429C9.73989 52.7789 9.64689 52.5314 9.49989 52.3004C9.35589 52.0664 9.16089 51.8759 8.91489 51.7289C8.67189 51.5819 8.37939 51.5084 8.03739 51.5084C7.63839 51.5084 7.29039 51.6224 6.99339 51.8504C6.69639 52.0754 6.46539 52.4024 6.30039 52.8314C6.13539 53.2604 6.05289 53.7824 6.05289 54.3974C6.05289 55.0094 6.13539 55.5329 6.30039 55.9679C6.46539 56.3999 6.69639 56.7299 6.99339 56.9579C7.29039 57.1829 7.63839 57.2954 8.03739 57.2954C8.32239 57.2954 8.57439 57.2414 8.79339 57.1334C9.01239 57.0254 9.19689 56.8829 9.34689 56.7059C9.49689 56.5259 9.60939 56.3279 9.68439 56.1119C9.76239 55.8959 9.80139 55.6799 9.80139 55.4639H10.3594ZM15.0435 57.7139V55.9094C15.0435 55.8194 15.0435 55.7144 15.0435 55.5944C15.0435 55.4744 15.0435 55.3544 15.0435 55.2344C15.0435 55.1114 15.0435 55.0049 15.0435 54.9149C15.0435 54.4259 14.934 54.0509 14.715 53.7899C14.499 53.5259 14.166 53.3939 13.716 53.3939C13.413 53.3939 13.1445 53.4569 12.9105 53.5829C12.6765 53.7089 12.492 53.8769 12.357 54.0869C12.225 54.2939 12.159 54.5234 12.159 54.7754L11.79 54.6674C11.79 54.3464 11.8755 54.0494 12.0465 53.7764C12.2205 53.5034 12.459 53.2844 12.762 53.1194C13.068 52.9514 13.4175 52.8674 13.8105 52.8674C14.3805 52.8674 14.82 53.0399 15.129 53.3849C15.441 53.7299 15.597 54.2069 15.597 54.8159C15.597 54.9779 15.597 55.1609 15.597 55.3649C15.597 55.5659 15.597 55.7714 15.597 55.9814V57.7139H15.0435ZM11.601 57.7139V50.6804H12.159V57.7139H11.601ZM17.1259 57.7139V52.9349H17.6749V57.7139H17.1259ZM17.4049 51.7289C17.2879 51.7289 17.1874 51.6959 17.1034 51.6299C17.0194 51.5609 16.9774 51.4694 16.9774 51.3554C16.9774 51.2444 17.0194 51.1559 17.1034 51.0899C17.1874 51.0209 17.2879 50.9864 17.4049 50.9864C17.5189 50.9864 17.6179 51.0209 17.7019 51.0899C17.7859 51.1559 17.8279 51.2444 17.8279 51.3554C17.8279 51.4694 17.7859 51.5609 17.7019 51.6299C17.6179 51.6959 17.5189 51.7289 17.4049 51.7289ZM21.43 57.7994C20.992 57.7994 20.5915 57.7019 20.2285 57.5069C19.8655 57.3089 19.5745 57.0254 19.3555 56.6564C19.1395 56.2874 19.0315 55.8434 19.0315 55.3244C19.0315 54.8054 19.1395 54.3629 19.3555 53.9969C19.5745 53.6309 19.8655 53.3519 20.2285 53.1599C20.5915 52.9649 20.992 52.8674 21.43 52.8674C21.766 52.8674 22.066 52.9199 22.33 53.0249C22.594 53.1269 22.8175 53.2634 23.0005 53.4344C23.1835 53.6024 23.323 53.7869 23.419 53.9879C23.515 54.1889 23.563 54.3869 23.563 54.5819C23.563 54.5849 23.563 54.5894 23.563 54.5954C23.563 54.5984 23.563 54.6029 23.563 54.6089H23.0095C23.0095 54.5939 23.008 54.5774 23.005 54.5594C23.005 54.5384 23.0035 54.5189 23.0005 54.5009C22.9735 54.2849 22.888 54.0929 22.744 53.9249C22.6 53.7569 22.4155 53.6234 22.1905 53.5244C21.9655 53.4254 21.7105 53.3759 21.4255 53.3759C21.1045 53.3759 20.8045 53.4494 20.5255 53.5964C20.2495 53.7404 20.026 53.9564 19.855 54.2444C19.684 54.5324 19.5985 54.8924 19.5985 55.3244C19.5985 55.7534 19.6825 56.1149 19.8505 56.4089C20.0215 56.6999 20.245 56.9204 20.521 57.0704C20.8 57.2174 21.1015 57.2909 21.4255 57.2909C21.7795 57.2909 22.072 57.2324 22.303 57.1154C22.534 56.9984 22.708 56.8469 22.825 56.6609C22.942 56.4749 23.0035 56.2814 23.0095 56.0804H23.563C23.563 56.2814 23.5165 56.4839 23.4235 56.6879C23.3335 56.8919 23.1985 57.0779 23.0185 57.2459C22.8415 57.4139 22.6195 57.5489 22.3525 57.6509C22.0885 57.7499 21.781 57.7994 21.43 57.7994ZM24.8813 57.7139V50.6804H25.4123V55.0859L25.2548 55.0184L27.7343 52.9349H28.4588L26.1368 54.9284L26.2718 54.6314L28.4993 57.7139H27.8918L25.8983 54.9329L26.0423 55.0139L25.3223 55.6214L25.4123 55.3424V57.7139H24.8813ZM29.3663 55.5584V55.0589H33.2363L33.1283 55.2119C33.1283 55.1939 33.1283 55.1789 33.1283 55.1669C33.1283 55.1519 33.1283 55.1369 33.1283 55.1219C33.1283 54.8129 33.0623 54.5249 32.9303 54.2579C32.7983 53.9909 32.6063 53.7764 32.3543 53.6144C32.1053 53.4524 31.8008 53.3714 31.4408 53.3714C31.0748 53.3714 30.7523 53.4554 30.4733 53.6234C30.1943 53.7884 29.9768 54.0179 29.8208 54.3119C29.6648 54.6029 29.5868 54.9419 29.5868 55.3289C29.5868 55.7189 29.6633 56.0624 29.8163 56.3594C29.9723 56.6534 30.1898 56.8829 30.4688 57.0479C30.7478 57.2099 31.0733 57.2909 31.4453 57.2909C31.7183 57.2909 31.9553 57.2579 32.1563 57.1919C32.3603 57.1229 32.5283 57.0329 32.6603 56.9219C32.7953 56.8109 32.8973 56.6939 32.9663 56.5709C33.0383 56.4449 33.0803 56.3264 33.0923 56.2154H33.6458C33.6338 56.3924 33.5768 56.5739 33.4748 56.7599C33.3758 56.9429 33.2333 57.1139 33.0473 57.2729C32.8643 57.4319 32.6363 57.5609 32.3633 57.6599C32.0933 57.7559 31.7813 57.8039 31.4273 57.8039C30.9653 57.8039 30.5543 57.6989 30.1943 57.4889C29.8373 57.2789 29.5553 56.9894 29.3483 56.6204C29.1443 56.2484 29.0423 55.8209 29.0423 55.3379C29.0423 54.8519 29.1458 54.4244 29.3528 54.0554C29.5598 53.6834 29.8433 53.3924 30.2033 53.1824C30.5633 52.9724 30.9728 52.8674 31.4318 52.8674C31.8998 52.8674 32.3048 52.9739 32.6468 53.1869C32.9888 53.3999 33.2528 53.6894 33.4388 54.0554C33.6248 54.4184 33.7178 54.8264 33.7178 55.2794C33.7178 55.3184 33.7163 55.3679 33.7133 55.4279C33.7133 55.4879 33.7118 55.5314 33.7088 55.5584H29.3663ZM38.4707 57.7139V55.3379C38.4707 55.1909 38.4707 55.0739 38.4707 54.9869C38.4707 54.8999 38.4707 54.8144 38.4707 54.7304C38.4707 54.4634 38.4227 54.2309 38.3267 54.0329C38.2337 53.8319 38.0897 53.6759 37.8947 53.5649C37.6997 53.4509 37.4492 53.3939 37.1432 53.3939C36.8732 53.3939 36.6197 53.4614 36.3827 53.5964C36.1457 53.7284 35.9537 53.9084 35.8067 54.1364C35.6627 54.3644 35.5907 54.6209 35.5907 54.9059L35.2532 54.7799C35.2532 54.4169 35.3462 54.0914 35.5322 53.8034C35.7212 53.5154 35.9672 53.2874 36.2702 53.1194C36.5762 52.9514 36.9002 52.8674 37.2422 52.8674C37.6052 52.8674 37.9202 52.9364 38.1872 53.0744C38.4542 53.2094 38.6597 53.4059 38.8037 53.6639C38.9507 53.9189 39.0242 54.2294 39.0242 54.5954C39.0242 54.7214 39.0242 54.8564 39.0242 55.0004C39.0242 55.1444 39.0242 55.2749 39.0242 55.3919V57.7139H38.4707ZM35.0327 57.7139V52.9349H35.5907V57.7139H35.0327Z" fill="black"/>
<path d="M26.9501 14.3859C26.9501 14.3859 29.0642 10.8825 28.0977 10.3993C27.1313 9.91604 25.6816 10.8825 25.6816 10.8825C25.6816 10.8825 26.648 7.49991 24.7151 7.49991C22.7822 7.49991 22.299 9.43281 22.299 9.43281C22.299 9.43281 21.595 5.42397 18.9164 6.53346C17.2425 7.22689 16.5003 8.94959 18.9164 13.7818" fill="#590202"/>
<path d="M18.9049 24.1084C19.6551 24.1084 20.2633 23.5002 20.2633 22.75C20.2633 21.9998 19.6551 21.3916 18.9049 21.3916C18.1547 21.3916 17.5465 21.9998 17.5465 22.75C17.5465 23.5002 18.1547 24.1084 18.9049 24.1084Z" fill="#590202"/>
<path d="M27.603 24.1084C28.3532 24.1084 28.9614 23.5002 28.9614 22.75C28.9614 21.9998 28.3532 21.3916 27.603 21.3916C26.8527 21.3916 26.2446 21.9998 26.2446 22.75C26.2446 23.5002 26.8527 24.1084 27.603 24.1084Z" fill="#590202"/>
<path d="M22.8717 24.291C22.8717 24.291 31.5697 23.8078 22.8717 32.9891C22.8717 32.9891 14.1736 24.291 22.8717 24.291Z" fill="#590202"/>
<path d="M22.862 34.4389C22.9072 35.7965 22.9079 35.7965 22.9087 35.7965L22.9104 35.7964L22.915 35.7962L22.928 35.7957L22.9695 35.7939C23.004 35.7922 23.0518 35.7896 23.1119 35.7856C23.2319 35.7778 23.4012 35.7646 23.6109 35.7428C24.0292 35.6995 24.6128 35.6215 25.288 35.4824C26.62 35.2079 28.3953 34.6779 29.9578 33.6362C31.5474 32.5765 32.9556 30.9549 33.3739 28.5565C33.7821 26.2164 33.2083 23.3567 31.3474 19.8581C31.327 19.8069 31.2988 19.7384 31.2625 19.655C31.187 19.4815 31.0758 19.2419 30.9254 18.9584C30.6262 18.3941 30.1637 17.6395 29.5075 16.8797C28.1899 15.354 26.0317 13.7515 22.862 13.7515C19.6922 13.7515 17.5341 15.354 16.2164 16.8797C15.5603 17.6395 15.0978 18.3941 14.7986 18.9584C14.6482 19.2419 14.5369 19.4815 14.4614 19.655C14.4251 19.7384 14.397 19.8069 14.3766 19.8581C12.5157 23.3567 11.9419 26.2164 12.3501 28.5565C12.7684 30.9549 14.1766 32.5765 15.7661 33.6362C17.3287 34.6779 19.104 35.2079 20.436 35.4824C21.1112 35.6215 21.6948 35.6995 22.1131 35.7428C22.3227 35.7646 22.4921 35.7778 22.6121 35.7856C22.6722 35.7896 22.72 35.7922 22.7544 35.7939L22.796 35.7957L22.809 35.7962L22.8135 35.7964L22.8153 35.7965C22.816 35.7965 22.8167 35.7965 22.862 34.4389ZM22.862 34.4389L22.8167 35.7965C22.8469 35.7975 22.8771 35.7975 22.9072 35.7965L22.862 34.4389Z" stroke="#590202" stroke-width="2.71681" stroke-miterlimit="10" stroke-linecap="round" stroke-linejoin="round"/>
</svg>
