<svg width="46" height="60" viewBox="0 0 46 60" fill="none" xmlns="http://www.w3.org/2000/svg">
<rect x="0.905605" y="0.905605" width="43.469" height="43.469" rx="21.7345" stroke="#590202" stroke-width="1.81121"/>
<path d="M5.86873 57.7139V51.0764H7.37173C7.80973 51.0764 8.20423 51.1514 8.55523 51.3014C8.90623 51.4514 9.20623 51.6689 9.45523 51.9539C9.70423 52.2389 9.89473 52.5869 10.0267 52.9979C10.1617 53.4089 10.2292 53.8754 10.2292 54.3974C10.2292 54.9164 10.1617 55.3814 10.0267 55.7924C9.89473 56.2034 9.70423 56.5514 9.45523 56.8364C9.20623 57.1214 8.90623 57.3389 8.55523 57.4889C8.20423 57.6389 7.80973 57.7139 7.37173 57.7139H5.86873ZM6.43573 57.5339L6.18373 57.2234H7.31323C7.78123 57.2234 8.19073 57.1109 8.54173 56.8859C8.89573 56.6579 9.17023 56.3324 9.36523 55.9094C9.56323 55.4864 9.66223 54.9824 9.66223 54.3974C9.66223 53.8064 9.56323 53.3009 9.36523 52.8809C9.17023 52.4579 8.89573 52.1339 8.54173 51.9089C8.19073 51.6809 7.78123 51.5669 7.31323 51.5669H6.18373L6.43573 51.2564V57.5339ZM11.5773 55.5584V55.0589H15.4473L15.3393 55.2119C15.3393 55.1939 15.3393 55.1789 15.3393 55.1669C15.3393 55.1519 15.3393 55.1369 15.3393 55.1219C15.3393 54.8129 15.2733 54.5249 15.1413 54.2579C15.0093 53.9909 14.8173 53.7764 14.5653 53.6144C14.3163 53.4524 14.0118 53.3714 13.6518 53.3714C13.2858 53.3714 12.9633 53.4554 12.6843 53.6234C12.4053 53.7884 12.1878 54.0179 12.0318 54.3119C11.8758 54.6029 11.7978 54.9419 11.7978 55.3289C11.7978 55.7189 11.8743 56.0624 12.0273 56.3594C12.1833 56.6534 12.4008 56.8829 12.6798 57.0479C12.9588 57.2099 13.2843 57.2909 13.6563 57.2909C13.9293 57.2909 14.1663 57.2579 14.3673 57.1919C14.5713 57.1229 14.7393 57.0329 14.8713 56.9219C15.0063 56.8109 15.1083 56.6939 15.1773 56.5709C15.2493 56.4449 15.2913 56.3264 15.3033 56.2154H15.8568C15.8448 56.3924 15.7878 56.5739 15.6858 56.7599C15.5868 56.9429 15.4443 57.1139 15.2583 57.2729C15.0753 57.4319 14.8473 57.5609 14.5743 57.6599C14.3043 57.7559 13.9923 57.8039 13.6383 57.8039C13.1763 57.8039 12.7653 57.6989 12.4053 57.4889C12.0483 57.2789 11.7663 56.9894 11.5593 56.6204C11.3553 56.2484 11.2533 55.8209 11.2533 55.3379C11.2533 54.8519 11.3568 54.4244 11.5638 54.0554C11.7708 53.6834 12.0543 53.3924 12.4143 53.1824C12.7743 52.9724 13.1838 52.8674 13.6428 52.8674C14.1108 52.8674 14.5158 52.9739 14.8578 53.1869C15.1998 53.3999 15.4638 53.6894 15.6498 54.0554C15.8358 54.4184 15.9288 54.8264 15.9288 55.2794C15.9288 55.3184 15.9273 55.3679 15.9243 55.4279C15.9243 55.4879 15.9228 55.5314 15.9198 55.5584H11.5773ZM18.9762 57.7994C18.6882 57.7994 18.4257 57.7694 18.1887 57.7094C17.9517 57.6494 17.7477 57.5624 17.5767 57.4484C17.4057 57.3314 17.2722 57.1904 17.1762 57.0254C17.0832 56.8574 17.0352 56.6654 17.0322 56.4494C17.0292 56.4224 17.0277 56.3954 17.0277 56.3684C17.0277 56.3384 17.0277 56.3129 17.0277 56.2919H17.5902C17.5902 56.3129 17.5902 56.3339 17.5902 56.3549C17.5902 56.3729 17.5902 56.3969 17.5902 56.4269C17.5992 56.7029 17.7252 56.9174 17.9682 57.0704C18.2142 57.2204 18.5532 57.2954 18.9852 57.2954C19.2612 57.2954 19.5027 57.2654 19.7097 57.2054C19.9197 57.1424 20.0847 57.0509 20.2047 56.9309C20.3247 56.8079 20.3847 56.6594 20.3847 56.4854C20.3847 56.1944 20.2587 55.9874 20.0067 55.8644C19.7577 55.7384 19.3902 55.6334 18.9042 55.5494C18.6522 55.5074 18.4167 55.4534 18.1977 55.3874C17.9817 55.3184 17.7912 55.2329 17.6262 55.1309C17.4642 55.0259 17.3367 54.8954 17.2437 54.7394C17.1507 54.5834 17.1042 54.3959 17.1042 54.1769C17.1042 53.8979 17.1882 53.6609 17.3562 53.4659C17.5242 53.2709 17.7492 53.1224 18.0312 53.0204C18.3162 52.9184 18.6297 52.8674 18.9717 52.8674C19.3107 52.8674 19.6212 52.9199 19.9032 53.0249C20.1882 53.1269 20.4162 53.2799 20.5872 53.4839C20.7582 53.6879 20.8437 53.9459 20.8437 54.2579C20.8437 54.2699 20.8437 54.2849 20.8437 54.3029C20.8437 54.3209 20.8437 54.3389 20.8437 54.3569H20.2857C20.2857 54.3419 20.2857 54.3284 20.2857 54.3164C20.2857 54.3014 20.2857 54.2879 20.2857 54.2759C20.2857 54.0569 20.2242 53.8814 20.1012 53.7494C19.9782 53.6174 19.8177 53.5214 19.6197 53.4614C19.4217 53.3984 19.2102 53.3669 18.9852 53.3669C18.7632 53.3669 18.5502 53.3939 18.3462 53.4479C18.1422 53.5019 17.9757 53.5874 17.8467 53.7044C17.7207 53.8184 17.6577 53.9699 17.6577 54.1589C17.6577 54.3479 17.7177 54.5009 17.8377 54.6179C17.9577 54.7319 18.1272 54.8249 18.3462 54.8969C18.5652 54.9659 18.8202 55.0274 19.1112 55.0814C19.3782 55.1294 19.6227 55.1879 19.8447 55.2569C20.0667 55.3229 20.2587 55.4069 20.4207 55.5089C20.5827 55.6109 20.7087 55.7399 20.7987 55.8959C20.8887 56.0489 20.9337 56.2364 20.9337 56.4584C20.9337 56.6774 20.8842 56.8709 20.7852 57.0389C20.6862 57.2039 20.5467 57.3434 20.3667 57.4574C20.1897 57.5714 19.9827 57.6569 19.7457 57.7139C19.5087 57.7709 19.2522 57.7994 18.9762 57.7994ZM23.9772 57.7994C23.6892 57.7994 23.4267 57.7694 23.1897 57.7094C22.9527 57.6494 22.7487 57.5624 22.5777 57.4484C22.4067 57.3314 22.2732 57.1904 22.1772 57.0254C22.0842 56.8574 22.0362 56.6654 22.0332 56.4494C22.0302 56.4224 22.0287 56.3954 22.0287 56.3684C22.0287 56.3384 22.0287 56.3129 22.0287 56.2919H22.5912C22.5912 56.3129 22.5912 56.3339 22.5912 56.3549C22.5912 56.3729 22.5912 56.3969 22.5912 56.4269C22.6002 56.7029 22.7262 56.9174 22.9692 57.0704C23.2152 57.2204 23.5542 57.2954 23.9862 57.2954C24.2622 57.2954 24.5037 57.2654 24.7107 57.2054C24.9207 57.1424 25.0857 57.0509 25.2057 56.9309C25.3257 56.8079 25.3857 56.6594 25.3857 56.4854C25.3857 56.1944 25.2597 55.9874 25.0077 55.8644C24.7587 55.7384 24.3912 55.6334 23.9052 55.5494C23.6532 55.5074 23.4177 55.4534 23.1987 55.3874C22.9827 55.3184 22.7922 55.2329 22.6272 55.1309C22.4652 55.0259 22.3377 54.8954 22.2447 54.7394C22.1517 54.5834 22.1052 54.3959 22.1052 54.1769C22.1052 53.8979 22.1892 53.6609 22.3572 53.4659C22.5252 53.2709 22.7502 53.1224 23.0322 53.0204C23.3172 52.9184 23.6307 52.8674 23.9727 52.8674C24.3117 52.8674 24.6222 52.9199 24.9042 53.0249C25.1892 53.1269 25.4172 53.2799 25.5882 53.4839C25.7592 53.6879 25.8447 53.9459 25.8447 54.2579C25.8447 54.2699 25.8447 54.2849 25.8447 54.3029C25.8447 54.3209 25.8447 54.3389 25.8447 54.3569H25.2867C25.2867 54.3419 25.2867 54.3284 25.2867 54.3164C25.2867 54.3014 25.2867 54.2879 25.2867 54.2759C25.2867 54.0569 25.2252 53.8814 25.1022 53.7494C24.9792 53.6174 24.8187 53.5214 24.6207 53.4614C24.4227 53.3984 24.2112 53.3669 23.9862 53.3669C23.7642 53.3669 23.5512 53.3939 23.3472 53.4479C23.1432 53.5019 22.9767 53.5874 22.8477 53.7044C22.7217 53.8184 22.6587 53.9699 22.6587 54.1589C22.6587 54.3479 22.7187 54.5009 22.8387 54.6179C22.9587 54.7319 23.1282 54.8249 23.3472 54.8969C23.5662 54.9659 23.8212 55.0274 24.1122 55.0814C24.3792 55.1294 24.6237 55.1879 24.8457 55.2569C25.0677 55.3229 25.2597 55.4069 25.4217 55.5089C25.5837 55.6109 25.7097 55.7399 25.7997 55.8959C25.8897 56.0489 25.9347 56.2364 25.9347 56.4584C25.9347 56.6774 25.8852 56.8709 25.7862 57.0389C25.6872 57.2039 25.5477 57.3434 25.3677 57.4574C25.1907 57.5714 24.9837 57.6569 24.7467 57.7139C24.5097 57.7709 24.2532 57.7994 23.9772 57.7994ZM27.3536 55.5584V55.0589H31.2236L31.1156 55.2119C31.1156 55.1939 31.1156 55.1789 31.1156 55.1669C31.1156 55.1519 31.1156 55.1369 31.1156 55.1219C31.1156 54.8129 31.0496 54.5249 30.9176 54.2579C30.7856 53.9909 30.5936 53.7764 30.3416 53.6144C30.0926 53.4524 29.7881 53.3714 29.4281 53.3714C29.0621 53.3714 28.7396 53.4554 28.4606 53.6234C28.1816 53.7884 27.9641 54.0179 27.8081 54.3119C27.6521 54.6029 27.5741 54.9419 27.5741 55.3289C27.5741 55.7189 27.6506 56.0624 27.8036 56.3594C27.9596 56.6534 28.1771 56.8829 28.4561 57.0479C28.7351 57.2099 29.0606 57.2909 29.4326 57.2909C29.7056 57.2909 29.9426 57.2579 30.1436 57.1919C30.3476 57.1229 30.5156 57.0329 30.6476 56.9219C30.7826 56.8109 30.8846 56.6939 30.9536 56.5709C31.0256 56.4449 31.0676 56.3264 31.0796 56.2154H31.6331C31.6211 56.3924 31.5641 56.5739 31.4621 56.7599C31.3631 56.9429 31.2206 57.1139 31.0346 57.2729C30.8516 57.4319 30.6236 57.5609 30.3506 57.6599C30.0806 57.7559 29.7686 57.8039 29.4146 57.8039C28.9526 57.8039 28.5416 57.6989 28.1816 57.4889C27.8246 57.2789 27.5426 56.9894 27.3356 56.6204C27.1316 56.2484 27.0296 55.8209 27.0296 55.3379C27.0296 54.8519 27.1331 54.4244 27.3401 54.0554C27.5471 53.6834 27.8306 53.3924 28.1906 53.1824C28.5506 52.9724 28.9601 52.8674 29.4191 52.8674C29.8871 52.8674 30.2921 52.9739 30.6341 53.1869C30.9761 53.3999 31.2401 53.6894 31.4261 54.0554C31.6121 54.4184 31.7051 54.8264 31.7051 55.2794C31.7051 55.3184 31.7036 55.3679 31.7006 55.4279C31.7006 55.4879 31.6991 55.5314 31.6961 55.5584H27.3536ZM33.02 57.7139V52.9349H33.578V54.3434L33.38 54.2804C33.398 54.1304 33.4415 53.9744 33.5105 53.8124C33.5825 53.6474 33.6815 53.4929 33.8075 53.3489C33.9335 53.2049 34.091 53.0894 34.28 53.0024C34.472 52.9124 34.7 52.8674 34.964 52.8674C35.156 52.8674 35.3105 52.8839 35.4275 52.9169C35.5445 52.9499 35.618 52.9754 35.648 52.9934L35.495 53.5334C35.465 53.5124 35.4035 53.4854 35.3105 53.4524C35.2175 53.4194 35.084 53.4029 34.91 53.4029C34.658 53.4029 34.4465 53.4524 34.2755 53.5514C34.1045 53.6474 33.968 53.7734 33.866 53.9294C33.764 54.0854 33.6905 54.2519 33.6455 54.4289C33.6005 54.6029 33.578 54.7709 33.578 54.9329V57.7139H33.02ZM38.2448 57.7859C38.1098 57.7859 37.9778 57.7694 37.8488 57.7364C37.7228 57.7034 37.6088 57.6449 37.5068 57.5609C37.4078 57.4739 37.3298 57.3554 37.2728 57.2054C37.2158 57.0554 37.1873 56.8649 37.1873 56.6339C37.1873 56.5709 37.1873 56.5064 37.1873 56.4404C37.1873 56.3714 37.1873 56.2994 37.1873 56.2244V53.4254H36.0353V52.9349H36.8633C36.9413 52.9349 37.0028 52.9319 37.0478 52.9259C37.0928 52.9199 37.1243 52.9049 37.1423 52.8809C37.1633 52.8569 37.1753 52.8194 37.1783 52.7684C37.1843 52.7174 37.1873 52.6469 37.1873 52.5569V51.3914H37.7453V52.9349H39.2753V53.4254H37.7453V56.0399C37.7453 56.1119 37.7453 56.1809 37.7453 56.2469C37.7453 56.3129 37.7453 56.3744 37.7453 56.4314C37.7453 56.7014 37.7843 56.9129 37.8623 57.0659C37.9433 57.2189 38.0948 57.2954 38.3168 57.2954C38.4008 57.2954 38.4833 57.2879 38.5643 57.2729C38.6453 57.2579 38.7068 57.2414 38.7488 57.2234V57.7094C38.6978 57.7304 38.6273 57.7484 38.5373 57.7634C38.4473 57.7784 38.3498 57.7859 38.2448 57.7859Z" fill="black"/>
<path d="M35.212 18.0158V30.6409C35.212 31.0911 34.8473 31.4554 34.3975 31.4554H10.7762C10.3264 31.4554 9.9617 31.0911 9.9617 30.6409V18.0158C9.9617 17.5663 10.3264 17.2012 10.7762 17.2012L24.6216 14.9863" stroke="#590202" stroke-width="2.71681" stroke-miterlimit="10" stroke-linecap="round" stroke-linejoin="round"/>
<path d="M31.5542 13.9644C33.6084 14.1721 35.212 15.9074 35.212 18.0161" stroke="#590202" stroke-width="2.71681" stroke-miterlimit="10" stroke-linecap="round" stroke-linejoin="round"/>
<path d="M9.9617 17.6594L10.369 22.9031C11.4937 22.9031 12.4053 21.9915 12.4053 20.8672C12.4053 19.7424 13.3169 18.8304 14.4416 18.8304C15.5663 18.8304 16.4779 19.7424 16.4779 20.8672C16.4779 21.9915 17.3895 22.9031 18.5142 22.9031C19.639 22.9031 20.5505 21.9915 20.5505 20.8672C20.5505 19.7424 21.4621 18.8304 22.5869 18.8304C23.7116 18.8304 24.6232 19.7424 24.6232 20.8672C24.6232 21.9915 25.5348 22.9031 26.6595 22.9031C27.7842 22.9031 28.6958 21.9915 28.6958 20.8672C28.6958 19.7424 29.6074 18.8304 30.7321 18.8304C31.8569 18.8304 32.7684 19.7424 32.7684 20.8672C32.7684 21.9915 33.68 22.9031 34.8048 22.9031L34.413 14.4897" fill="#590202"/>
<path d="M9.9617 26.8848H35.212" stroke="#590202" stroke-width="2.71681" stroke-miterlimit="10" stroke-linecap="round" stroke-linejoin="round"/>
<path d="M28.0849 17.3383C29.9597 17.3383 31.4796 15.8184 31.4796 13.9435C31.4796 12.0687 29.9597 10.5488 28.0849 10.5488C26.21 10.5488 24.6902 12.0687 24.6902 13.9435C24.6902 15.8184 26.21 17.3383 28.0849 17.3383Z" fill="white" stroke="#590202" stroke-width="2.71681" stroke-miterlimit="10" stroke-linecap="round" stroke-linejoin="round"/>
<path d="M28.0849 13.1288C28.0849 10.8795 29.908 9.05615 32.1575 9.05615" stroke="#590202" stroke-width="1.81121" stroke-miterlimit="10" stroke-linecap="round" stroke-linejoin="round"/>
</svg>
