<svg width="21" height="21" viewBox="0 0 21 21" fill="none" xmlns="http://www.w3.org/2000/svg">
<g clip-path="url(#clip0_5_2275)">
<path d="M19.3137 15.6503L16.0284 12.6055L13.5557 11.6922C14.3225 10.5087 14.7045 9.11697 14.6494 7.7078C14.5055 3.91964 11.3065 0.954867 7.51832 1.09881C3.73016 1.24276 0.765388 4.44174 0.909333 8.22991C1.05328 12.0181 4.25226 14.9828 8.04043 14.8389C9.46198 14.7865 10.8318 14.292 11.959 13.4244L13.0545 15.8142L16.3397 18.8591C16.5504 19.0544 16.7975 19.2063 17.0669 19.3061C17.3362 19.4058 17.6226 19.4516 17.9097 19.4407C18.1968 19.4298 18.4789 19.3625 18.7399 19.2425C19.001 19.1226 19.2358 18.9524 19.4311 18.7418C19.6264 18.5311 19.7783 18.284 19.878 18.0146C19.9778 17.7452 20.0236 17.4588 20.0127 17.1717C20.0018 16.8847 19.9345 16.6026 19.8145 16.3415C19.6946 16.0805 19.5244 15.8456 19.3137 15.6503ZM2.15843 8.18244C2.04066 5.08312 4.46646 2.46568 7.56579 2.34791C10.6651 2.23014 13.2825 4.65594 13.4003 7.75527C13.5181 10.8546 11.0923 13.472 7.99296 13.5898C4.89364 13.7076 2.2762 11.2818 2.15843 8.18244ZM18.5143 17.892C18.3452 18.0741 18.1107 18.1817 17.8623 18.1911C17.6139 18.2006 17.3719 18.1111 17.1894 17.9423L14.0869 15.067L13.0685 12.8449L15.3615 13.6918L18.4641 16.5671C18.6462 16.7363 18.7537 16.9708 18.7631 17.2192C18.7726 17.4675 18.6831 17.7095 18.5143 17.892Z" fill="#590202"/>
</g>
<defs>
<clipPath id="clip0_5_2275">
<rect width="20" height="20" fill="white" transform="translate(0 0.759277) rotate(-2.17611)"/>
</clipPath>
</defs>
</svg>
