<svg width="30" height="30" viewBox="0 0 30 30" fill="none" xmlns="http://www.w3.org/2000/svg">
<circle cx="15" cy="15" r="14.5" stroke="#590202"/>
<path d="M11 9.5C10.7 9.5 10.5 9.8 10.5 10V12.5H9.5V10C9.5 9.7 9.3 9.5 9 9.5C8.7 9.5 8.5 9.8 8.5 10V12.5H7.5V10C7.5 9.7 7.3 9.5 7 9.5C6.7 9.5 6.5 9.8 6.5 10V13.3C6.5 14.2 7.2 14.9 8 15V22C8 22.6 8.4 23 9 23C9.6 23 10 22.6 10 22V15C10.8 14.9 11.5 14.2 11.5 13.3V10C11.5 9.8 11.3 9.5 11 9.5ZM13 10V16H14V22C14 22.6 14.4 23 15 23C15.6 23 16 22.6 16 22V7C14.3 7 13 8.3 13 10ZM20 9C18.6 9 17.5 10.5 17.5 12.3C17.4 13.5 18 14.6 19 15.3V22C19 22.6 19.4 23 20 23C20.6 23 21 22.6 21 22V15.3C22 14.6 22.6 13.5 22.5 12.3C22.5 10.5 21.4 9 20 9Z" fill="#590202"/>
</svg>
