<svg width="28" height="28" viewBox="0 0 28 28" fill="none" xmlns="http://www.w3.org/2000/svg">
<path d="M21.5 0.87482C22.3265 0.875663 23.1427 1.05865 23.8905 1.41076C24.6383 1.76286 25.2993 2.27544 25.8265 2.91202C26.3537 3.5486 26.7341 4.29355 26.9407 5.09385C27.1473 5.89415 27.175 6.73015 27.0218 7.54237C26.8686 8.35459 26.5383 9.12307 26.0544 9.79313C25.5705 10.4632 24.9448 11.0184 24.222 11.4192C23.4991 11.82 22.6968 12.0566 21.8721 12.1121C21.0475 12.1676 20.2207 12.0407 19.4506 11.7404L13.0625 20.2511V25.2498H15.875C16.1236 25.2498 16.3621 25.3486 16.5379 25.5244C16.7137 25.7002 16.8125 25.9387 16.8125 26.1873C16.8125 26.436 16.7137 26.6744 16.5379 26.8502C16.3621 27.026 16.1236 27.1248 15.875 27.1248H8.375C8.12636 27.1248 7.8879 27.026 7.71209 26.8502C7.53627 26.6744 7.4375 26.436 7.4375 26.1873C7.4375 25.9387 7.53627 25.7002 7.71209 25.5244C7.8879 25.3486 8.12636 25.2498 8.375 25.2498H11.1875V20.2511L1.25 7.01357C1.00658 6.68901 0.875 6.29426 0.875 5.88857V5.57544C0.875 5.3268 0.973772 5.08835 1.14959 4.91253C1.3254 4.73672 1.56386 4.63794 1.8125 4.63794H3.91625L1.99625 2.18169C1.84309 1.98577 1.77403 1.73702 1.80427 1.49017C1.83451 1.24333 1.96157 1.01861 2.1575 0.865445C2.35343 0.712282 2.60218 0.643225 2.84902 0.673466C3.09587 0.703706 3.32059 0.830766 3.47375 1.02669L6.29375 4.63794H16.1881C16.5744 3.53757 17.293 2.5844 18.2446 1.91025C19.1962 1.2361 20.3338 0.874276 21.5 0.87482ZM18.245 4.63794H22.4375C22.6861 4.63794 22.9246 4.73672 23.1004 4.91253C23.2762 5.08835 23.375 5.3268 23.375 5.57544V5.88669C23.375 6.29239 23.2434 6.68714 23 7.01169L20.6431 10.1523C21.3203 10.311 22.0283 10.2782 22.688 10.0576C23.3476 9.83696 23.9329 9.43723 24.3784 8.90308C24.8239 8.36894 25.112 7.72141 25.2107 7.03289C25.3093 6.34437 25.2145 5.64199 24.9368 5.00426C24.6592 4.36653 24.2096 3.81859 23.6384 3.42168C23.0673 3.02478 22.3969 2.79455 21.7024 2.75674C21.0079 2.71892 20.3165 2.87501 19.7056 3.20756C19.0947 3.54011 18.5884 4.03601 18.2431 4.63982V4.63794H18.245ZM7.76 6.51294L11.5531 11.3692C11.6976 11.5658 11.7598 11.8109 11.7264 12.0526C11.6931 12.2943 11.5669 12.5134 11.3745 12.6635C11.1822 12.8136 10.939 12.8828 10.6964 12.8565C10.4539 12.8301 10.2312 12.7102 10.0756 12.5223L5.38062 6.51294H3.21875L12.125 18.3761L21.0312 6.51294H7.76Z" fill="#590202"/>
</svg>
